#!OML:ASF G:\JayActor3\Patient Classification 1\Patient 1\Session 6\male.ASF
:FULLY-SPECIFIED
:DEGREES
2019
root -17.4629 16.5857 2.09261 170.49 -78.8882 -170.336
lowerback -1.34846 4.21111 6.57333
upperback -3.92024 5.55569 -1.90061
thorax -2.4987 2.54835 -5.65234
lowerneck 4.62227 17.1051 10.5694
upperneck 12.1858 23.3415 -3.68766
head 4.6318 11.7788 -1.74037
rclavicle -4.25399e-014 -3.97569e-016
rhumerus -38.3371 -6.10819 -86.2085
rradius 45.2332
rwrist -0.942582
rhand -15.064 -4.62603
rfingers 7.12502
rthumb 11.103 -34.3123
lclavicle -4.25399e-014 -3.97569e-016
lhumerus -41.3229 0.795055 72.3984
lradius 12.8846
lwrist 4.14124
lhand -12.0861 15.7205
lfingers 7.12502
lthumb 13.974 45.2309
rfemur 2.60928 -1.66456 21.6013
rtibia 35.2045
rfoot -34.738 -27.5037
rtoes 0.637478
lfemur -8.43514 14.5967 -17.5866
ltibia 25.7385
lfoot -13.6935 -16.7693
ltoes 8.54069
2020
root -17.4587 16.5864 2.0848 170.336 -78.8962 -170.159
lowerback -1.33736 4.24305 6.60258
upperback -3.90595 5.59998 -1.87984
thorax -2.48317 2.57129 -5.64622
lowerneck 4.61491 17.0864 10.5643
upperneck 12.1566 23.3117 -3.65434
head 4.61712 11.7657 -1.73412
rclavicle 9.64106e-015 2.18663e-014
rhumerus -38.4694 -6.41611 -86.1174
rradius 44.395
rwrist -0.680271
rhand -15.1224 -4.69627
rfingers 7.12502
rthumb 11.0467 -34.3856
lclavicle 9.64106e-015 2.18663e-014
lhumerus -42.0749 0.0955102 72.3334
lradius 13.2718
lwrist 6.55595
lhand -11.9086 15.344
lfingers 7.12502
lthumb 14.1451 44.8425
rfemur 2.62258 -1.8258 21.6222
rtibia 35.1217
rfoot -34.706 -27.399
rtoes 0.605248
lfemur -8.46108 14.4418 -17.5413
ltibia 25.7407
lfoot -13.745 -16.6081
ltoes 8.4309
2021
root -17.4542 16.5873 2.07712 170.197 -78.9134 -170.002
lowerback -1.31813 4.27052 6.62329
upperback -3.89187 5.63886 -1.85902
thorax -2.47393 2.5915 -5.6361
lowerneck 4.60961 17.0711 10.5615
upperneck 12.1285 23.2873 -3.62534
head 4.60367 11.7552 -1.72895
rclavicle 4.63168e-014 -1.11319e-014
rhumerus -38.6004 -6.76103 -85.9929
rradius 43.5142
rwrist -0.415247
rhand -15.1781 -4.75826
rfingers 7.12502
rthumb 10.9929 -34.4504
lclavicle 4.63168e-014 -1.11319e-014
lhumerus -42.807 -0.375665 72.1769
lradius 13.6654
lwrist 8.83645
lhand -11.9427 15.075
lfingers 7.12502
lthumb 14.1122 44.5758
rfemur 2.64293 -1.98295 21.638
rtibia 35.0368
rfoot -34.6611 -27.3043
rtoes 0.556204
lfemur -8.48103 14.2894 -17.5014
ltibia 25.7374
lfoot -13.7946 -16.4533
ltoes 8.31021
2022
root -17.4496 16.5882 2.0697 170.088 -78.941 -169.884
lowerback -1.29434 4.29417 6.63532
upperback -3.8751 5.67288 -1.84123
thorax -2.4656 2.60955 -5.62467
lowerneck 4.60114 17.0585 10.5592
upperneck 12.1004 23.2663 -3.59638
head 4.59098 11.7463 -1.72327
rclavicle 2.98177e-016 -5.96354e-015
rhumerus -38.725 -7.15258 -85.8334
rradius 42.5924
rwrist -0.137484
rhand -15.2256 -4.80573
rfingers 7.12502
rthumb 10.9472 -34.5003
lclavicle 2.98177e-016 -5.96354e-015
lhumerus -43.5028 -0.638111 71.9342
lradius 14.0522
lwrist 10.9283
lhand -12.1936 14.8726
lfingers 7.12502
lthumb 13.8704 44.3901
rfemur 2.67101 -2.13616 21.6433
rtibia 34.9512
rfoot -34.6039 -27.2171
rtoes 0.491731
lfemur -8.49301 14.1377 -17.4716
ltibia 25.7275
lfoot -13.838 -16.3057
ltoes 8.20385
2023
root -17.4448 16.5894 2.06242 169.962 -78.9713 -169.75
lowerback -1.26862 4.31602 6.6485
upperback -3.85879 5.70463 -1.82344
thorax -2.45907 2.62635 -5.61411
lowerneck 4.5994 17.0473 10.5626
upperneck 12.0682 23.2482 -3.57153
head 4.57735 11.739 -1.71986
rclavicle 7.50909e-014 1.15295e-014
rhumerus -38.8475 -7.58948 -85.6378
rradius 41.6322
rwrist 0.160557
rhand -15.2623 -4.82745
rfingers 7.12502
rthumb 10.9118 -34.5239
lclavicle 7.50909e-014 1.15295e-014
lhumerus -44.1511 -0.715419 71.614
lradius 14.4101
lwrist 12.7354
lhand -12.605 14.7355
lfingers 7.12502
lthumb 13.4739 44.2797
rfemur 2.70019 -2.27502 21.6534
rtibia 34.8658
rfoot -34.5289 -27.1492
rtoes 0.402709
lfemur -8.50342 13.9944 -17.4389
ltibia 25.7137
lfoot -13.8697 -16.1712
ltoes 8.11783
2024
root -17.4401 16.5908 2.05543 169.817 -79.0055 -169.599
lowerback -1.2449 4.33535 6.66455
upperback -3.84262 5.73289 -1.80555
thorax -2.45184 2.64133 -5.60499
lowerneck 4.59739 17.0367 10.5664
upperneck 12.0405 23.2304 -3.54088
head 4.56457 11.732 -1.71466
rclavicle -2.29099e-014 8.34896e-015
rhumerus -38.9663 -8.06925 -85.406
rradius 40.6335
rwrist 0.48475
rhand -15.2875 -4.85209
rfingers 7.12502
rthumb 10.8874 -34.5498
lclavicle -2.29099e-014 8.34896e-015
lhumerus -44.7489 -0.627728 71.2261
lradius 14.7266
lwrist 14.169
lhand -13.1542 14.6039
lfingers 7.12502
lthumb 12.9446 44.1823
rfemur 2.73022 -2.40432 21.6665
rtibia 34.7847
rfoot -34.4321 -27.097
rtoes 0.281378
lfemur -8.51122 13.8465 -17.4046
ltibia 25.6957
lfoot -13.8874 -16.0412
ltoes 8.05933
2025
root -17.4353 16.5923 2.0487 169.622 -79.0404 -169.397
lowerback -1.22422 4.35376 6.69039
upperback -3.82844 5.75976 -1.78648
thorax -2.44442 2.6553 -5.59994
lowerneck 4.6088 17.0249 10.5787
upperneck 12.0119 23.2119 -3.51055
head 4.55044 11.7252 -1.71178
rclavicle -5.77966e-014 -8.74653e-015
rhumerus -39.0872 -8.59058 -85.1382
rradius 39.6022
rwrist 0.840223
rhand -15.3006 -4.88107
rfingers 7.12502
rthumb 10.8749 -34.5795
lclavicle -5.77966e-014 -8.74653e-015
lhumerus -45.2914 -0.403189 70.7859
lradius 14.9868
lwrist 15.1698
lhand -13.789 14.5246
lfingers 7.12502
lthumb 12.3325 44.1409
rfemur 2.75734 -2.51875 21.6914
rtibia 34.714
rfoot -34.3148 -27.0611
rtoes 0.113819
lfemur -8.51819 13.7003 -17.3601
ltibia 25.6745
lfoot -13.8858 -15.9251
ltoes 8.04002
2026
root -17.4304 16.5941 2.04222 169.383 -79.0752 -169.15
lowerback -1.20999 4.37175 6.72588
upperback -3.81633 5.78564 -1.76758
thorax -2.43481 2.66849 -5.60002
lowerneck 4.63057 17.0104 10.5979
upperneck 11.9868 23.1902 -3.47535
head 4.53576 11.7172 -1.70936
rclavicle -4.04527e-014 3.4191e-014
rhumerus -39.2091 -9.15214 -84.8353
rradius 38.5438
rwrist 1.24102
rhand -15.2983 -4.96214
rfingers 7.12502
rthumb 10.877 -34.6604
lclavicle -4.04527e-014 3.4191e-014
lhumerus -45.7695 -0.0560286 70.2974
lradius 15.1697
lwrist 15.7108
lhand -14.4633 14.428
lfingers 7.12502
lthumb 11.6824 44.0823
rfemur 2.77269 -2.62179 21.7247
rtibia 34.6655
rfoot -34.1578 -27.0439
rtoes -0.142866
lfemur -8.52449 13.5595 -17.3053
ltibia 25.6462
lfoot -13.8574 -15.831
ltoes 8.08374
2027
root -17.4253 16.5961 2.03596 169.091 -79.1088 -168.849
lowerback -1.20206 4.3901 6.77385
upperback -3.80276 5.8116 -1.74848
thorax -2.41903 2.68171 -5.60619
lowerneck 4.65586 16.9929 10.621
upperneck 11.9676 23.1642 -3.43415
head 4.52186 11.7075 -1.70612
rclavicle -5.57094e-014 7.95139e-016
rhumerus -39.3269 -9.74944 -84.5004
rradius 37.4594
rwrist 1.67747
rhand -15.3089 -5.06031
rfingers 7.12502
rthumb 10.8668 -34.7591
lclavicle -5.57094e-014 7.95139e-016
lhumerus -46.1776 0.387916 69.7791
lradius 15.2669
lwrist 15.801
lhand -15.137 14.3356
lfingers 7.12502
lthumb 11.0326 44.0257
rfemur 2.77216 -2.71924 21.7648
rtibia 34.654
rfoot -33.9427 -27.0395
rtoes -0.521994
lfemur -8.52529 13.4333 -17.2352
ltibia 25.6075
lfoot -13.7952 -15.7724
ltoes 8.20066
2028
root -17.4201 16.5983 2.02994 168.762 -79.1447 -168.513
lowerback -1.20112 4.40848 6.83061
upperback -3.78446 5.8371 -1.72993
thorax -2.39359 2.69505 -5.61693
lowerneck 4.67711 16.9726 10.641
upperneck 11.96 23.1326 -3.37972
head 4.50993 11.6953 -1.69847
rclavicle 3.72721e-015 1.59028e-014
rhumerus -39.4397 -10.3768 -84.1349
rradius 36.3562
rwrist 2.14266
rhand -15.3325 -5.19376
rfingers 7.12502
rthumb 10.8441 -34.8938
lclavicle 3.72721e-015 1.59028e-014
lhumerus -46.5091 0.91079 69.2464
lradius 15.2723
lwrist 15.4765
lhand -15.788 14.2478
lfingers 7.12502
lthumb 10.4047 43.9704
rfemur 2.75143 -2.81723 21.8008
rtibia 34.6984
rfoot -33.6523 -27.0287
rtoes -1.03924
lfemur -8.51297 13.3217 -17.153
ltibia 25.5517
lfoot -13.6953 -15.7602
ltoes 8.42422
2029
root -17.4144 16.6005 2.02404 168.407 -79.1811 -168.158
lowerback -1.20602 4.4262 6.89228
upperback -3.75961 5.86125 -1.71166
thorax -2.35771 2.70828 -5.62984
lowerneck 4.70582 16.9498 10.6616
upperneck 11.9579 23.0971 -3.31691
head 4.49738 11.6814 -1.68936
rclavicle 1.40143e-014 -5.96354e-015
rhumerus -39.5448 -11.0254 -83.7437
rradius 35.2347
rwrist 2.62693
rhand -15.3794 -5.34744
rfingers 7.12502
rthumb 10.7988 -35.0498
lclavicle 1.40143e-014 -5.96354e-015
lhumerus -46.7638 1.4835 68.7234
lradius 15.1882
lwrist 14.8155
lhand -16.3893 14.1878
lfingers 7.12502
lthumb 9.82462 43.9386
rfemur 2.70194 -2.90704 21.8286
rtibia 34.8184
rfoot -33.266 -27.0128
rtoes -1.72442
lfemur -8.48411 13.2226 -17.0593
ltibia 25.4757
lfoot -13.5479 -15.7967
ltoes 8.77236
2030
root -17.408 16.6029 2.01835 168.032 -79.2241 -167.79
lowerback -1.21546 4.44246 6.95969
upperback -3.72475 5.88302 -1.69657
thorax -2.30832 2.72113 -5.64832
lowerneck 4.73097 16.9256 10.6791
upperneck 11.9666 23.0578 -3.2403
head 4.4866 11.666 -1.67564
rclavicle -5.81445e-015 -9.14409e-015
rhumerus -39.6369 -11.6965 -83.3311
rradius 34.1002
rwrist 3.12161
rhand -15.4556 -5.50584
rfingers 7.12502
rthumb 10.7253 -35.2121
lclavicle -5.81445e-015 -9.14409e-015
lhumerus -46.9336 2.08728 68.2235
lradius 15.0193
lwrist 13.8892
lhand -16.9364 14.1532
lfingers 7.12502
lthumb 9.29672 43.9282
rfemur 2.61286 -2.985 21.842
rtibia 35.0358
rfoot -32.7712 -26.9782
rtoes -2.5657
lfemur -8.43536 13.1226 -16.9579
ltibia 25.3747
lfoot -13.3519 -15.8777
ltoes 9.25255
2031
root -17.4003 16.6058 2.01276 167.625 -79.2703 -167.397
lowerback -1.22239 4.45936 7.0359
upperback -3.68248 5.90579 -1.68494
thorax -2.25128 2.73489 -5.67505
lowerneck 4.76952 16.8988 10.6986
upperneck 11.9777 23.015 -3.15486
head 4.47347 11.6492 -1.66116
rclavicle -5.88403e-014 -7.15625e-015
rhumerus -39.7209 -12.3874 -82.9011
rradius 32.9583
rwrist 3.61397
rhand -15.5672 -5.6615
rfingers 7.12502
rthumb 10.6177 -35.3733
lclavicle -5.88403e-014 -7.15625e-015
lhumerus -47.016 2.69939 67.7608
lradius 14.7682
lwrist 12.7728
lhand -17.3926 14.1631
lfingers 7.12502
lthumb 8.8565 43.9573
rfemur 2.46896 -3.02881 21.8477
rtibia 35.3737
rfoot -32.1655 -26.9247
rtoes -3.54228
lfemur -8.36736 13.0176 -16.8442
ltibia 25.246
lfoot -13.0979 -16.0025
ltoes 9.8748
